<svg width="48" height="48" viewBox="0 0 48 48" fill="none" xmlns="http://www.w3.org/2000/svg"><g clip-path="url(#a)"><path d="M34.413 14.654a24.809 24.809 0 0 0-6.19-1.904c-.292.523-.556 1.06-.792 1.612a23.047 23.047 0 0 0-6.869 0c-.236-.551-.5-1.09-.793-1.612a24.988 24.988 0 0 0-6.194 1.909c-3.917 5.795-4.978 11.446-4.447 17.017a24.948 24.948 0 0 0 7.59 3.811 18.329 18.329 0 0 0 1.626-2.621 16.137 16.137 0 0 1-2.56-1.223c.215-.155.425-.316.628-.472a17.83 17.83 0 0 0 15.177 0c.205.168.415.328.627.472-.817.483-1.675.893-2.565 1.225.467.917 1.011 1.794 1.626 2.62a24.834 24.834 0 0 0 7.596-3.81c.623-6.46-1.064-12.06-4.46-17.024ZM19.017 28.25c-1.48 0-2.702-1.342-2.702-2.994 0-1.652 1.18-3.006 2.697-3.006 1.517 0 2.73 1.354 2.704 3.006-.026 1.652-1.192 2.994-2.7 2.994Zm9.967 0c-1.482 0-2.7-1.342-2.7-2.994 0-1.652 1.18-3.006 2.7-3.006 1.52 0 2.723 1.354 2.697 3.006-.026 1.652-1.19 2.994-2.697 2.994Z" fill="#9B9BB0"/></g><defs><clipPath id="a"><path fill="#fff" d="M9 12.75h30v22.737H9z"/></clipPath></defs></svg>