<svg width="24" height="24" viewBox="0 0 24 24" fill="none" xmlns="http://www.w3.org/2000/svg"><path d="M12 21.5a9.267 9.267 0 0 1-3.713-.75 9.626 9.626 0 0 1-3.025-2.038 9.454 9.454 0 0 1-2.024-3.024c-.492-1.159-.738-2.405-.738-3.738 0-1.317.246-2.55.737-3.7a9.491 9.491 0 0 1 2.026-3.013 9.287 9.287 0 0 1 3.024-2.012A9.543 9.543 0 0 1 12 2.5c1.317 0 2.554.242 3.713.725a9.287 9.287 0 0 1 3.025 2.012 9.492 9.492 0 0 1 2.024 3.013 9.311 9.311 0 0 1 .738 3.7c0 1.333-.246 2.58-.738 3.738a9.455 9.455 0 0 1-2.024 3.024 9.626 9.626 0 0 1-3.025 2.038c-1.159.5-2.396.75-3.713.75Zm0-1.075a10.204 10.204 0 0 0 1.525-2.2c.4-.783.733-1.7 1-2.75H9.5c.25 1.033.575 1.95.975 2.75s.908 1.533 1.525 2.2Zm-1.575-.225a9.456 9.456 0 0 1-1.263-2.113 13.31 13.31 0 0 1-.837-2.612H4.35c.633 1.3 1.433 2.32 2.4 3.063.967.741 2.192 1.295 3.675 1.662Zm3.175 0a9.052 9.052 0 0 0 3.563-1.675 8.607 8.607 0 0 0 2.487-3.05H15.7c-.25.933-.55 1.8-.9 2.6s-.75 1.508-1.2 2.125Zm-9.625-5.85H8.1c-.05-.467-.083-.892-.1-1.275a25.9 25.9 0 0 1 0-2.262c.017-.359.058-.746.125-1.163h-4.15a8.537 8.537 0 0 0-.263 1.112 7.418 7.418 0 0 0-.087 1.188c0 .45.03.863.087 1.238.059.374.146.762.263 1.162Zm5.3 0h5.475c.067-.517.113-.95.137-1.3a15.457 15.457 0 0 0 0-2.138c-.024-.341-.07-.762-.137-1.262H9.275c-.067.5-.113.92-.138 1.262a15.457 15.457 0 0 0 0 2.138c.025.35.071.783.138 1.3Zm6.6 0h4.15c.117-.4.204-.787.263-1.162.058-.376.087-.788.087-1.238 0-.433-.03-.83-.087-1.188a8.528 8.528 0 0 0-.263-1.112H15.9c.05.55.088.996.112 1.338.026.341.038.662.038.962 0 .383-.012.754-.038 1.113-.024.358-.07.787-.137 1.287Zm-.2-5.85h3.975c-.583-1.267-1.396-2.304-2.438-3.112-1.041-.809-2.254-1.346-3.637-1.613.483.633.896 1.342 1.238 2.125.341.783.629 1.65.862 2.6ZM9.5 8.5h5.05a10.894 10.894 0 0 0-.988-2.65A10.53 10.53 0 0 0 12 3.625c-.567.517-1.046 1.158-1.438 1.925-.391.767-.745 1.75-1.062 2.95Zm-5.15 0h3.975c.217-.917.496-1.763.838-2.537A11.74 11.74 0 0 1 10.4 3.8c-1.383.267-2.588.796-3.613 1.588C5.763 6.179 4.95 7.216 4.35 8.5Z" fill="#fff"/></svg>