<svg width="48" height="48" viewBox="0 0 48 48" fill="none" xmlns="http://www.w3.org/2000/svg"><path d="M18.432 36.192c11.316 0 17.508-9.384 17.508-17.508 0-.264 0-.528-.012-.792A12.536 12.536 0 0 0 39 14.7a12.471 12.471 0 0 1-3.54.972 6.191 6.191 0 0 0 2.712-3.408 12.24 12.24 0 0 1-3.912 1.488 6.142 6.142 0 0 0-4.488-1.944 6.161 6.161 0 0 0-6.156 6.156c0 .48.06.948.156 1.404-5.112-.252-9.648-2.712-12.684-6.432a6.154 6.154 0 0 0-.828 3.096 6.17 6.17 0 0 0 2.736 5.124 6.224 6.224 0 0 1-2.784-.768v.084a6.166 6.166 0 0 0 4.932 6.036 6 6 0 0 1-1.62.216 6.05 6.05 0 0 1-1.152-.108 6.153 6.153 0 0 0 5.748 4.272 12.342 12.342 0 0 1-7.644 2.64c-.492 0-.984-.024-1.464-.084a17.503 17.503 0 0 0 9.42 2.748Z" fill="#9B9BB0"/></svg>