<svg width="184" height="36" viewBox="0 0 184 36" fill="none" xmlns="http://www.w3.org/2000/svg"><path d="M20.925 11.318c0 1.485-1.31 2.689-2.925 2.689-1.615 0-2.925-1.204-2.925-2.689 0-1.484 1.31-2.688 2.925-2.688 1.615 0 2.925 1.204 2.925 2.688ZM23.362 21.13c0 2.079-2.4 2.151-5.362 2.151-2.961 0-5.362-.072-5.362-2.15 0-2.08 1.34-5.511 5.362-5.511 4.021 0 5.362 3.432 5.362 5.51ZM10.2 17.904c1.616 0 2.925-1.203 2.925-2.688 0-1.484-1.31-2.688-2.925-2.688-1.615 0-2.924 1.204-2.924 2.688 0 1.485 1.31 2.688 2.924 2.688ZM28.724 15.216c0 1.485-1.31 2.688-2.925 2.688-1.615 0-2.924-1.203-2.924-2.688 0-1.484 1.31-2.688 2.924-2.688 1.616 0 2.925 1.204 2.925 2.688Z" fill="#fff"/><path fill-rule="evenodd" clip-rule="evenodd" d="M18 32.023c8.64 0 15.644-6.283 15.644-14.034 0-4.371-2.228-8.276-5.721-10.85-2.647-1.981-6.12-3.183-9.923-3.183s-7.277 1.202-9.923 3.183c-3.493 2.574-5.722 6.479-5.722 10.85C2.355 25.74 9.36 32.023 18 32.023Zm0-3.105c8.068 0 14.443-5.543 14.443-12.194 0-6.65-6.375-12.193-14.443-12.193S3.556 10.074 3.556 16.724c0 6.65 6.376 12.194 14.444 12.194Z" fill="#fff"/><path d="M45.184 24h3.76c4.128 0 6.04-2.344 6.04-5.832 0-3.368-1.792-5.6-5.984-5.72-1.008-.024-3.528-.016-3.816-.016V24Zm2.736-2.168V14.6h1.12c1.888 0 3.104 1.12 3.104 3.536 0 2.712-1.544 3.696-3.12 3.696H47.92ZM62.919 24.16c3.328 0 5.44-2.296 5.44-5.92 0-3.656-2.152-5.968-5.44-5.968-3.304 0-5.48 2.312-5.48 5.968 0 3.64 2.12 5.92 5.48 5.92Zm0-2.208c-1.48 0-2.496-1.008-2.496-3.672 0-2.728 1.016-3.8 2.496-3.8s2.48 1.072 2.48 3.8c0 2.664-.992 3.672-2.48 3.672ZM71.278 24h2.728v-4.224h1.984L77.774 24h2.8l-2.088-4.664c1.08-.6 1.928-1.512 1.928-3.312 0-2.064-1.184-3.592-4.072-3.592h-5.064V24Zm2.728-6.28v-3.248h2.04c.888 0 1.624.664 1.624 1.6 0 .904-.68 1.648-1.704 1.648h-1.96ZM82.844 24h2.72l.872-2.464h3.904L91.196 24H93.9l-4.12-11.568h-2.824L82.844 24Zm4.184-4.808 1.344-4.144 1.336 4.144h-2.68ZM100.903 24h2.736v-4.632h4.624v-2.192h-4.624V14.68h5.432l.008-2.248h-8.176V24ZM109.907 24h2.72l.872-2.464h3.904l.856 2.464h2.704l-4.12-11.568h-2.824L109.907 24Zm4.184-4.808 1.344-4.144 1.336 4.144h-2.68ZM127.846 24.16c3.472 0 4.568-2.016 4.872-4.32h-2.856c-.192 1.144-.904 2.112-2.104 2.112-1.4 0-2.304-1.088-2.304-3.824 0-2.696.904-3.648 2.304-3.648 1.2 0 1.912.768 2.104 1.912h2.856c-.248-2.384-2.192-4.12-4.872-4.12-3.32 0-5.392 2.24-5.392 5.816 0 3.584 2.104 6.072 5.392 6.072ZM137.969 24h2.736v-9.16h3.36v-2.408h-9.48v2.408h3.384V24ZM151.513 24.16c3.328 0 5.44-2.296 5.44-5.92 0-3.656-2.152-5.968-5.44-5.968-3.304 0-5.48 2.312-5.48 5.968 0 3.64 2.12 5.92 5.48 5.92Zm0-2.208c-1.48 0-2.496-1.008-2.496-3.672 0-2.728 1.016-3.8 2.496-3.8s2.48 1.072 2.48 3.8c0 2.664-.992 3.672-2.48 3.672ZM159.872 24h2.728v-4.224h1.984L166.368 24h2.8l-2.088-4.664c1.08-.6 1.928-1.512 1.928-3.312 0-2.064-1.184-3.592-4.072-3.592h-5.064V24Zm2.728-6.28v-3.248h2.04c.888 0 1.624.664 1.624 1.6 0 .904-.68 1.648-1.704 1.648h-1.96ZM174.489 24h2.728v-4.84l4.072-6.728h-2.976l-2.44 4.4-2.48-4.4h-2.944l4.04 6.728V24Z" fill="#fff"/></svg>